<svg xmlns="http://www.w3.org/2000/svg" xmlns:xlink="http://www.w3.org/1999/xlink" viewBox="0 0 50 50" version="1.1" fill="#f4e022" id="svg_icon.primary" x="68" y="86" width="24" height="24"><g id="surface1"><path style=" " d="M 25 5 C 13.972656 5 5 13.972656 5 25 C 5 33.316406 10.105469 40.457031 17.34375 43.46875 L 18 41.59375 C 11.546875 38.855469 7 32.441406 7 25 C 7 15.074219 15.074219 7 25 7 C 34.925781 7 43 15.074219 43 25 C 43 32.441406 38.453125 38.855469 32 41.59375 L 32.65625 43.46875 C 39.894531 40.457031 45 33.316406 45 25 C 45 13.972656 36.027344 5 25 5 Z M 25 13 C 18.382813 13 13 18.382813 13 25 C 13 29.816406 15.867188 33.964844 19.96875 35.875 L 20.625 33.96875 C 17.308594 32.339844 15 28.9375 15 25 C 15 19.484375 19.484375 15 25 15 C 30.515625 15 35 19.484375 35 25 C 35 28.9375 32.695313 32.339844 29.375 33.96875 L 30.03125 35.875 C 34.132813 33.964844 37 29.816406 37 25 C 37 18.382813 31.617188 13 25 13 Z M 25 21 C 22.800781 21 21 22.800781 21 25 C 21 26.851563 22.28125 28.398438 24 28.84375 L 24 45 L 26 45 L 26 28.84375 C 27.71875 28.398438 29 26.851563 29 25 C 29 22.800781 27.199219 21 25 21 Z M 25 23 C 26.117188 23 27 23.882813 27 25 C 27 26.117188 26.117188 27 25 27 C 23.882813 27 23 26.117188 23 25 C 23 23.882813 23.882813 23 25 23 Z "></path></g></svg>